<svg width="18" height="20" viewBox="0 0 18 20" fill="none" xmlns="http://www.w3.org/2000/svg">
<path d="M11.9072 15.5385V16.2308C11.9072 16.9652 11.6009 17.6696 11.0558 18.1889C10.5107 18.7082 9.77143 19 9.00054 19C8.22966 19 7.49035 18.7082 6.94525 18.1889C6.40015 17.6696 6.09392 16.9652 6.09392 16.2308V15.5385M16.7976 14.1292C15.6313 12.7692 14.8079 12.0769 14.8079 8.32764C14.8079 4.89423 12.9676 3.67101 11.453 3.07692C11.2518 2.99817 11.0624 2.81731 11.0011 2.62043C10.7354 1.75894 9.99061 1 9.00054 1C8.01047 1 7.2652 1.75937 7.00224 2.6213C6.94093 2.82034 6.75154 2.99817 6.55035 3.07692C5.03391 3.67188 3.19547 4.89077 3.19547 8.32764C3.19319 12.0769 2.3698 12.7692 1.20352 14.1292C0.720291 14.6925 1.14357 15.5385 1.98876 15.5385H16.0169C16.8575 15.5385 17.2781 14.69 16.7976 14.1292Z" stroke="#323232" stroke-width="2" stroke-linecap="round" stroke-linejoin="round"/>
</svg>
