<svg width="25" height="24" viewBox="0 0 25 24" fill="none" xmlns="http://www.w3.org/2000/svg">
<path d="M12.5 22L12.25 19H12C9.63333 19 7.625 18.175 5.975 16.525C4.325 14.875 3.5 12.8667 3.5 10.5C3.5 8.13333 4.325 6.125 5.975 4.475C7.625 2.825 9.63333 2 12 2C13.1833 2 14.2877 2.22067 15.313 2.662C16.3383 3.10333 17.2383 3.71167 18.013 4.487C18.7877 5.26233 19.3957 6.16233 19.837 7.187C20.2783 8.21167 20.4993 9.316 20.5 10.5C20.5 11.75 20.2957 12.95 19.887 14.1C19.4783 15.25 18.92 16.3167 18.212 17.3C17.504 18.2833 16.6623 19.175 15.687 19.975C14.7117 20.775 13.6493 21.45 12.5 22ZM14.5 18.35C15.6833 17.35 16.646 16.179 17.388 14.837C18.13 13.495 18.5007 12.0493 18.5 10.5C18.5 8.68333 17.8707 7.146 16.612 5.888C15.3533 4.63 13.816 4.00067 12 4C10.1833 4 8.646 4.62933 7.388 5.888C6.13 7.14667 5.50067 8.684 5.5 10.5C5.5 12.3167 6.12933 13.854 7.388 15.112C8.64667 16.37 10.184 16.9993 12 17H14.5V18.35ZM11.975 15.975C12.2583 15.975 12.5 15.875 12.7 15.675C12.9 15.475 13 15.2333 13 14.95C13 14.6667 12.9 14.425 12.7 14.225C12.5 14.025 12.2583 13.925 11.975 13.925C11.6917 13.925 11.45 14.025 11.25 14.225C11.05 14.425 10.95 14.6667 10.95 14.95C10.95 15.2333 11.05 15.475 11.25 15.675C11.45 15.875 11.6917 15.975 11.975 15.975ZM11.25 12.8H12.75C12.75 12.3 12.8 11.95 12.9 11.75C13 11.55 13.3167 11.1833 13.85 10.65C14.15 10.35 14.4 10.025 14.6 9.675C14.8 9.325 14.9 8.95 14.9 8.55C14.9 7.7 14.6123 7.06233 14.037 6.637C13.4617 6.21167 12.7827 5.99933 12 6C11.2667 6 10.65 6.20433 10.15 6.613C9.65 7.02167 9.3 7.51733 9.1 8.1L10.5 8.65C10.5833 8.36667 10.7417 8.08733 10.975 7.812C11.2083 7.53667 11.55 7.39933 12 7.4C12.45 7.4 12.7873 7.525 13.012 7.775C13.2367 8.025 13.3493 8.3 13.35 8.6C13.35 8.88333 13.2667 9.13767 13.1 9.363C12.9333 9.58833 12.7333 9.81733 12.5 10.05C11.9167 10.55 11.5623 10.946 11.437 11.238C11.3117 11.53 11.2493 12.0507 11.25 12.8Z" fill="#323232"/>
</svg>
