<svg width="54" height="24" viewBox="0 0 54 24" fill="none" xmlns="http://www.w3.org/2000/svg">
<path d="M11.25 22C10.6533 22 10.081 21.8946 9.65901 21.7071C9.23705 21.5196 9 21.2652 9 21V13C9 12.7348 9.23705 12.4804 9.65901 12.2929C10.081 12.1054 10.6533 12 11.25 12C11.8467 12 12.419 12.1054 12.841 12.2929C13.2629 12.4804 13.5 12.7348 13.5 13V21C13.5 21.2652 13.2629 21.5196 12.841 21.7071C12.419 21.8946 11.8467 22 11.25 22ZM22.5 22C21.9033 22 21.331 21.8946 20.909 21.7071C20.4871 21.5196 20.25 21.2652 20.25 21V3C20.25 2.73478 20.4871 2.48043 20.909 2.29289C21.331 2.10536 21.9033 2 22.5 2C23.0967 2 23.669 2.10536 24.091 2.29289C24.5129 2.48043 24.75 2.73478 24.75 3V21C24.75 21.2652 24.5129 21.5196 24.091 21.7071C23.669 21.8946 23.0967 22 22.5 22ZM33.75 22C33.1533 22 32.581 21.8946 32.159 21.7071C31.7371 21.5196 31.5 21.2652 31.5 21V9C31.5 8.73478 31.7371 8.48043 32.159 8.29289C32.581 8.10536 33.1533 8 33.75 8C34.3467 8 34.919 8.10536 35.341 8.29289C35.7629 8.48043 36 8.73478 36 9V21C36 21.2652 35.7629 21.5196 35.341 21.7071C34.919 21.8946 34.3467 22 33.75 22ZM45 22C44.4033 22 43.831 21.8946 43.409 21.7071C42.9871 21.5196 42.75 21.2652 42.75 21V17C42.75 16.7348 42.9871 16.4804 43.409 16.2929C43.831 16.1054 44.4033 16 45 16C45.5967 16 46.169 16.1054 46.591 16.2929C47.013 16.4804 47.25 16.7348 47.25 17V21C47.25 21.2652 47.013 21.5196 46.591 21.7071C46.169 21.8946 45.5967 22 45 22Z" fill="#0FA44A"/>
</svg>
